<svg width="30" height="30" viewBox="0 0 30 30" fill="none" xmlns="http://www.w3.org/2000/svg">
<path d="M14.0287 14.8957C14.9417 14.3479 15.5002 13.3614 15.5002 12.2967V9.43651C15.5002 8.37184 14.9417 7.38526 14.0287 6.83748L9.77991 4.28821L5.53113 6.83748C4.61816 7.38526 4.05957 8.37184 4.05957 9.43651V12.2967C4.05957 13.3614 4.61816 14.3479 5.53113 14.8957L9.77991 17.445L14.0287 14.8957Z" stroke="black" stroke-width="1.2" stroke-miterlimit="10" stroke-linecap="round" stroke-linejoin="round"/>
<path d="M2 15.3856L2.81658 14.8957C3.72954 14.3479 4.05932 13.3613 4.05932 12.2966" stroke="black" stroke-width="1.2" stroke-miterlimit="10" stroke-linecap="round" stroke-linejoin="round"/>
<path d="M24.6523 25.3389L22.6916 24.1625C21.7786 23.6147 21.22 22.6281 21.22 21.5635C21.22 22.6281 20.6615 23.6147 19.7485 24.1625L15.4997 26.7118L11.2509 24.1625C10.338 23.6147 9.77937 22.6281 9.77937 21.5635C9.77937 22.6281 9.22078 23.6147 8.30781 24.1625L6.34717 25.3389" stroke="black" stroke-width="1.2" stroke-miterlimit="10" stroke-linecap="round" stroke-linejoin="round"/>
<path d="M15.5 12.2967C15.5 13.3614 16.0586 14.3479 16.9716 14.8957L21.2203 17.445L25.4691 14.8957C26.3821 14.3479 26.9407 13.3614 26.9407 12.2967V9.43651C26.9407 8.37184 26.3821 7.38526 25.4691 6.83748L21.2203 4.28821L16.9716 6.83748C16.0586 7.38526 15.5 8.37184 15.5 9.43651" stroke="black" stroke-width="1.2" stroke-miterlimit="10" stroke-linecap="round" stroke-linejoin="round"/>
<path d="M26.9404 12.2966C26.9404 13.3613 27.2702 14.3479 28.1832 14.8957L28.9998 15.3856" stroke="black" stroke-width="1.2" stroke-miterlimit="10" stroke-linecap="round" stroke-linejoin="round"/>
<path d="M15.5 28.9999V26.7118" stroke="black" stroke-width="1.2" stroke-miterlimit="10" stroke-linecap="round" stroke-linejoin="round"/>
<path d="M9.77979 2V4.28814" stroke="black" stroke-width="1.2" stroke-miterlimit="10" stroke-linecap="round" stroke-linejoin="round"/>
<path d="M21.2202 2V4.28814" stroke="black" stroke-width="1.2" stroke-miterlimit="10" stroke-linecap="round" stroke-linejoin="round"/>
</svg>
