<svg width="30" height="30" viewBox="0 0 30 30" fill="none" xmlns="http://www.w3.org/2000/svg">
<path d="M21.3898 23.5933V28.0001M21.3898 28.0001H28V9.71194C28 7.8866 26.5203 6.40686 24.6949 6.40686C22.8696 6.40686 21.3898 7.8866 21.3898 9.71194V19.1865C21.3898 18.3668 20.9422 17.6516 20.2781 17.2721L12.7865 12.8653C12.4647 12.6815 12.0921 12.5764 11.6949 12.5764C11.2936 12.5764 10.9173 12.6837 10.5932 12.8711L3.11178 17.2721C2.44762 17.6516 2 18.3668 2 19.1865V25.7967C2 27.0136 2.98651 28.0001 4.20339 28.0001H21.3898Z" stroke="black" stroke-width="1.2" stroke-miterlimit="10" stroke-linecap="round" stroke-linejoin="round"/>
<path d="M10.5933 12.8711V9.71194C10.5933 7.8866 12.073 6.40686 13.8983 6.40686C15.7237 6.40686 17.2034 7.8866 17.2034 9.71194V15.3893" stroke="black" stroke-width="1.2" stroke-miterlimit="10" stroke-linecap="round" stroke-linejoin="round"/>
<path d="M24.695 6.40678V4.20339C24.695 2.98651 23.7085 2 22.4917 2H16.1018C14.885 2 13.8984 2.98651 13.8984 4.20339V6.40678" stroke="black" stroke-width="1.2" stroke-miterlimit="10" stroke-linecap="round" stroke-linejoin="round"/>
<path d="M8.39014 23.5932V21.3898C8.39014 20.1729 9.37665 19.1864 10.5935 19.1864H12.7969C14.0138 19.1864 15.0003 20.1729 15.0003 21.3898V23.5932" stroke="black" stroke-width="1.2" stroke-miterlimit="10" stroke-linecap="round" stroke-linejoin="round"/>
</svg>
