<svg width="30" height="30" viewBox="0 0 30 30" fill="none" xmlns="http://www.w3.org/2000/svg">
<path d="M24.4914 10.4915V12.8644C24.4914 14.1749 23.429 15.2373 22.1185 15.2373H7.88118C6.5707 15.2373 5.5083 14.1749 5.5083 12.8644V3.37288C5.5083 2.0624 6.5707 1 7.88118 1H22.1185C23.429 1 24.4914 2.0624 24.4914 3.37288V5.74576" stroke="black" stroke-width="1.2" stroke-miterlimit="10" stroke-linecap="round" stroke-linejoin="round"/>
<path d="M22.1185 10.4916H26.8642V5.74585H22.1185C20.808 5.74585 19.7456 6.80825 19.7456 8.11873C19.7456 9.42921 20.808 10.4916 22.1185 10.4916Z" stroke="black" stroke-width="1.2" stroke-miterlimit="10" stroke-linecap="round" stroke-linejoin="round"/>
<path d="M15 19.7458V24.2543" stroke="black" stroke-width="1.2" stroke-miterlimit="10" stroke-linecap="round" stroke-linejoin="round"/>
<path d="M14.9998 28.9999C16.3103 28.9999 17.3727 27.9375 17.3727 26.627C17.3727 25.3165 16.3103 24.2542 14.9998 24.2542C13.6893 24.2542 12.627 25.3165 12.627 26.627C12.627 27.9375 13.6893 28.9999 14.9998 28.9999Z" stroke="black" stroke-width="1.2" stroke-miterlimit="10" stroke-linecap="round" stroke-linejoin="round"/>
<path d="M19.5083 19.7458C19.5083 22.3669 21.633 24.4916 24.2541 24.4916" stroke="black" stroke-width="1.2" stroke-miterlimit="10" stroke-linecap="round" stroke-linejoin="round"/>
<path d="M26.6273 26.8644C27.9378 26.8644 29.0002 25.802 29.0002 24.4915C29.0002 23.181 27.9378 22.1187 26.6273 22.1187C25.3168 22.1187 24.2544 23.181 24.2544 24.4915C24.2544 25.802 25.3168 26.8644 26.6273 26.8644Z" stroke="black" stroke-width="1.2" stroke-miterlimit="10" stroke-linecap="round" stroke-linejoin="round"/>
<path d="M5.74561 24.4916C8.36663 24.4916 10.4914 22.3669 10.4914 19.7458" stroke="black" stroke-width="1.2" stroke-miterlimit="10" stroke-linecap="round" stroke-linejoin="round"/>
<path d="M3.37288 26.8644C4.68339 26.8644 5.74576 25.802 5.74576 24.4915C5.74576 23.181 4.68339 22.1187 3.37288 22.1187C2.06238 22.1187 1 23.181 1 24.4915C1 25.802 2.06238 26.8644 3.37288 26.8644Z" stroke="black" stroke-width="1.2" stroke-miterlimit="10" stroke-linecap="round" stroke-linejoin="round"/>
</svg>
