<svg width="30" height="30" viewBox="0 0 30 30" fill="none" xmlns="http://www.w3.org/2000/svg">
<path d="M22.5933 24.8815H20.3052" stroke="black" stroke-width="1.2" stroke-miterlimit="10" stroke-linecap="round" stroke-linejoin="round"/>
<path d="M22.5933 20.3051H27.1696L25.266 14.5938C25.0107 13.8281 24.9025 13.0272 24.8172 12.2246C24.1248 5.70051 17.925 0.795231 10.9695 2.2605C6.53676 3.19436 3.00345 6.85442 2.19373 11.3115C1.48166 15.2309 2.78516 18.8742 5.23932 21.3958C6.08153 22.2611 6.57606 23.4026 6.57611 24.6101L6.57623 26.712C6.57629 27.9757 7.60069 29 8.86438 29H20.3052C21.5689 29 22.5934 27.9755 22.5934 26.7118V24.8813" stroke="black" stroke-width="1.2" stroke-miterlimit="10" stroke-linecap="round" stroke-linejoin="round"/>
<path d="M22.5933 24.8815H20.3052" stroke="black" stroke-width="1.2" stroke-miterlimit="10" stroke-linecap="round" stroke-linejoin="round"/>
<path d="M7.7207 10.0084H19.1614" stroke="black" stroke-width="1.2" stroke-miterlimit="10" stroke-linecap="round" stroke-linejoin="round"/>
<path d="M10.0088 12.2965V7.72021" stroke="black" stroke-width="1.2" stroke-miterlimit="10" stroke-linecap="round" stroke-linejoin="round"/>
<path d="M7.7207 16.8728H19.1614" stroke="black" stroke-width="1.2" stroke-miterlimit="10" stroke-linecap="round" stroke-linejoin="round"/>
<path d="M16.873 19.161V14.5847" stroke="black" stroke-width="1.2" stroke-miterlimit="10" stroke-linecap="round" stroke-linejoin="round"/>
</svg>
