<svg width="40" height="40" viewBox="0 0 40 40" fill="none" xmlns="http://www.w3.org/2000/svg">
<path d="M14.9873 11.0807H23.3206" stroke="black" stroke-width="1.4" stroke-miterlimit="10" stroke-linecap="round" stroke-linejoin="round"/>
<mask id="mask0_255_741" style="mask-type:luminance" maskUnits="userSpaceOnUse" x="3" y="3" width="34" height="34">
<path d="M35.9673 35.9664V4.03284H4.03369V35.9664H35.9673Z" fill="white" stroke="white" stroke-width="1.4"/>
</mask>
<g mask="url(#mask0_255_741)">
<path d="M30.083 11.1458L27.206 13.695C25.8115 14.9306 25.0132 16.7045 25.0132 18.5677V28.8541C25.0132 29.4869 25.1035 30.0986 25.2719 30.677" stroke="black" stroke-width="1.4" stroke-miterlimit="10" stroke-linecap="round" stroke-linejoin="round"/>
<path d="M33.1721 13.695L30.1566 10.9407V8.70435C30.1566 6.45715 28.3348 4.63534 26.0876 4.63534H13.9131C11.6659 4.63534 9.84408 6.45715 9.84408 8.70435V11.0806L6.85905 13.6926C5.44616 14.9288 4.63574 16.7148 4.63574 18.5922V28.8541C4.63574 32.4497 7.55059 35.3645 11.1462 35.3645H28.8545C32.4501 35.3645 35.3649 32.4497 35.3649 28.8541V18.5677C35.3649 16.7045 34.5666 14.9306 33.1721 13.695Z" stroke="black" stroke-width="1.4" stroke-miterlimit="10" stroke-linecap="round" stroke-linejoin="round"/>
<path d="M30.1567 18.5677V28.3333" stroke="black" stroke-width="1.4" stroke-miterlimit="10" stroke-linecap="round" stroke-linejoin="round"/>
<path d="M12.3833 24.2317C12.3833 25.6699 13.4841 26.901 14.9224 26.901C16.3606 26.901 17.5265 25.7351 17.5265 24.2968C17.5265 23.4746 16.6965 21.8687 15.9856 20.6441C15.5364 19.8701 14.4218 19.8601 13.9591 20.6262C13.231 21.8316 12.3833 23.4112 12.3833 24.2317Z" stroke="black" stroke-width="1.4" stroke-miterlimit="10" stroke-linecap="round" stroke-linejoin="round"/>
</g>
</svg>
