<svg width="40" height="40" viewBox="0 0 40 40" fill="none" xmlns="http://www.w3.org/2000/svg">
<path d="M10.7017 16.5613H16.7367" stroke="black" stroke-width="1.4" stroke-linecap="round" stroke-linejoin="round"/>
<path d="M33.0819 18.0702H29.1553C26.4632 18.0702 24.2808 20.0966 24.2808 22.5965C24.2808 25.0964 26.4632 27.1228 29.1553 27.1228H33.0819C33.2077 27.1228 33.2705 27.1228 33.3236 27.1196C34.1372 27.07 34.7853 26.4683 34.8387 25.7127C34.8421 25.6634 34.8421 25.605 34.8421 25.4883V19.7046C34.8421 19.588 34.8421 19.5296 34.8387 19.4803C34.7853 18.7247 34.1372 18.123 33.3236 18.0734C33.2705 18.0702 33.2077 18.0702 33.0819 18.0702Z" stroke="black" stroke-width="1.4"/>
<path d="M33.2803 18.0702C33.1631 15.2453 32.7848 13.5133 31.5654 12.294C29.7979 10.5264 26.9528 10.5264 21.263 10.5264H16.7367C11.0467 10.5264 8.20177 10.5264 6.43413 12.294C4.6665 14.0616 4.6665 16.9066 4.6665 22.5965C4.6665 28.2863 4.6665 31.1314 6.43413 32.8989C8.20177 34.6666 11.0467 34.6666 16.7367 34.6666H21.263C26.9528 34.6666 29.7979 34.6666 31.5654 32.8989C32.7848 31.6797 33.1631 29.9476 33.2803 27.1228" stroke="black" stroke-width="1.4"/>
<path d="M10.7017 10.5263L16.3376 6.78928C17.9247 5.73691 20.075 5.73691 21.6621 6.78928L27.2981 10.5263" stroke="black" stroke-width="1.4" stroke-linecap="round"/>
<path d="M28.7939 22.5963H28.8071" stroke="black" stroke-width="1.4" stroke-linecap="round" stroke-linejoin="round"/>
</svg>
