<svg width="40" height="40" viewBox="0 0 40 40" fill="none" xmlns="http://www.w3.org/2000/svg">
<path d="M34.6665 17.3785V32.1243C34.6665 33.5283 33.5282 34.6666 32.1241 34.6666H7.20888C5.80479 34.6666 4.6665 33.5283 4.6665 32.1243V7.209C4.6665 5.80491 5.80479 4.66663 7.20888 4.66663H32.1241C33.5282 4.66663 34.6665 5.80491 34.6665 7.209V12.2937" stroke="black" stroke-width="1.4" stroke-miterlimit="10" stroke-linecap="round" stroke-linejoin="round"/>
<path d="M4.6665 12.2938H34.6665" stroke="black" stroke-width="1.4" stroke-miterlimit="10" stroke-linecap="round" stroke-linejoin="round"/>
<path d="M24.4971 9.75146V12.2938" stroke="black" stroke-width="1.4" stroke-miterlimit="10" stroke-linecap="round" stroke-linejoin="round"/>
<path d="M29.582 9.75146V12.2938" stroke="black" stroke-width="1.4" stroke-miterlimit="10" stroke-linecap="round" stroke-linejoin="round"/>
<path d="M19.4126 12.2938V9.75146" stroke="black" stroke-width="1.4" stroke-miterlimit="10" stroke-linecap="round" stroke-linejoin="round"/>
<path d="M13.3109 26.0226L10.7686 23.4802L13.3109 20.9379" stroke="black" stroke-width="1.4" stroke-miterlimit="10" stroke-linecap="round" stroke-linejoin="round"/>
<path d="M26.0225 26.0226L28.5648 23.4802L26.0225 20.9379" stroke="black" stroke-width="1.4" stroke-miterlimit="10" stroke-linecap="round" stroke-linejoin="round"/>
<path d="M22.2093 17.1243L17.1245 29.8361" stroke="black" stroke-width="1.4" stroke-miterlimit="10" stroke-linecap="round" stroke-linejoin="round"/>
</svg>
