<svg width="40" height="40" viewBox="0 0 40 40" fill="none" xmlns="http://www.w3.org/2000/svg">
<circle cx="16.0002" cy="10.6667" r="0.666667" fill="black"/>
<path d="M16.0454 13.2994V16.1243" stroke="black" stroke-width="1.4" stroke-miterlimit="10" stroke-linecap="round" stroke-linejoin="round"/>
<path d="M16.6624 3.33337C17.8418 3.33337 18.8702 3.33337 18.8702 3.33337C24.2939 3.33337 28.7572 7.79651 28.7572 13.2204C28.7572 18.644 24.2939 23.1074 18.8702 23.1074C18.8702 23.1074 16.8141 23.1074 15.0699 23.1074C13.5581 23.1074 12.1182 23.7745 11.1423 24.9291C11.1418 24.9296 11.1416 24.9299 11.1416 24.9299C10.6234 25.543 9.84875 25.9322 8.98321 25.9322C7.42311 25.9322 6.15835 24.6675 6.15835 23.1074V20.112C4.41422 18.3256 3.3335 15.8892 3.3335 13.2204C3.3335 7.79651 7.79684 3.33337 13.2205 3.33337C13.2205 3.33337 15.0776 3.33337 16.6624 3.33337Z" stroke="black" stroke-width="1.4" stroke-miterlimit="10" stroke-linecap="round" stroke-linejoin="round"/>
<path d="M13.0581 29.635C14.8554 32.1725 17.8132 33.8418 21.1301 33.8418C21.1301 33.8418 23.1873 33.8418 24.9318 33.8418C26.4452 33.8418 27.8818 34.5086 28.8588 35.6644C29.377 36.2774 30.1516 36.6667 31.0171 36.6667C32.5772 36.6667 33.842 35.4019 33.842 33.8418C33.842 32.1708 34.3068 30.5485 35.1879 29.1287C36.1244 27.6198 36.6669 25.8456 36.6669 23.9548C36.6669 21.038 35.3761 18.3991 33.3393 16.5826" stroke="black" stroke-width="1.4" stroke-miterlimit="10" stroke-linecap="round" stroke-linejoin="round"/>
</svg>
