<svg width="553" height="337" viewBox="0 0 553 337" fill="none" xmlns="http://www.w3.org/2000/svg">
<path d="M204.691 180.833L204.929 180.754L204.85 180.516L204.454 180.358L204.691 180.833Z" fill="white" fill-opacity="0.1"/>
<path d="M410.406 35.8661L412.144 35.3132L411.67 33.2589L410.801 32.3898L411.433 30.7309L410.327 27.1759L408.826 26.0698L406.614 28.4399L406.298 31.7578L408.905 35.0762L410.406 35.8661Z" fill="white" fill-opacity="0.1"/>
<path d="M418.701 61.3836L417.358 60.5146L416.568 60.3567L414.909 63.2005L416.015 64.7807L418.543 62.2527L418.701 61.3836Z" fill="white" fill-opacity="0.1"/>
<path d="M221.279 90.8498V91.7981L223.254 92.3509L222.543 90.6128L221.279 90.8498Z" fill="white" fill-opacity="0.1"/>
<path d="M224.203 94.6416L225.467 95.7477L226.731 93.9304L224.835 92.9035L225.229 91.3237L223.808 90.8496L224.913 93.2197L224.203 94.6416Z" fill="white" fill-opacity="0.1"/>
<path d="M217.171 88.2426L218.04 89.3487L217.646 90.8497L218.83 92.3508L219.304 90.9289L218.12 90.3756L219.067 89.5857L217.803 88.7958L218.515 87.4527L221.28 88.3217L222.702 88.0847L222.622 85.715L223.096 85.083L220.647 85.3988L220.489 86.6628L219.462 86.979L219.067 86.0308L217.487 85.9516L217.646 87.2156L216.065 85.9516L215.75 87.2156L216.934 87.4527L215.75 88.2426H217.171Z" fill="white" fill-opacity="0.1"/>
<path d="M229.1 95.6692L228.705 94.1682L227.125 93.0625L226.256 95.6692L227.599 98.3551L229.416 97.0916L227.441 97.1703V95.2743L229.1 95.6692Z" fill="white" fill-opacity="0.1"/>
<path d="M219.541 86.1094L220.251 84.45L216.459 82.791L216.223 84.7662L219.461 84.45L219.541 86.1094Z" fill="white" fill-opacity="0.1"/>
<path d="M227.203 90.3765L227.124 91.7988L229.415 91.5618L228.546 88.8759L227.598 87.5327V88.8759H225.623L226.018 90.1394L227.203 90.3765Z" fill="white" fill-opacity="0.1"/>
<path d="M233.999 90.0602L232.577 88.4013L232.419 86.821H230.997L232.577 89.2703L233.999 90.0602Z" fill="white" fill-opacity="0.1"/>
<path d="M232.496 91.7197L233.128 92.8258L232.97 93.3787L231.153 92.6675L229.81 94.3269L231.311 96.3016L233.207 95.5117L233.997 94.4848L233.681 92.5888L234.55 91.9568L232.496 91.7197Z" fill="white" fill-opacity="0.1"/>
<path d="M182.489 145.044L182.016 146.387L182.963 148.52L181.304 147.73L181.225 148.836L179.962 148.678L181.225 150.89L182.016 150.969L182.41 153.418L183.832 152.549L184.385 154.524L187.546 156.341L188.493 155.788L187.782 154.129L187.387 150.337L188.019 147.572L188.888 145.518L188.493 144.965L190.31 143.78L190.389 142.911L193.075 140.383L193.866 140.857L194.813 139.909L193.707 139.04L195.525 139.435L196.314 138.487L195.525 137.223L196.946 138.724L200.739 136.907L203.504 134.458L204.53 134.695L204.925 131.93L206.11 133.826L207.059 132.641L208.085 133.352L209.507 132.246L213.299 130.192L217.013 129.955L218.355 130.271L225.624 129.718L228.389 128.77L229.968 127.664L230.522 126.084L230.285 124.583L229.021 123.635H227.835L224.517 125.294L218.987 125.768L217.25 123.951L216.223 123.635L215.512 124.978L214.326 124.03L214.01 124.82L212.035 124.109L208.955 125.452L207.611 125.215L207.138 126.637L206.347 125.452L203.978 126.953L203.266 125.689L202.714 126.637L203.819 127.901L202.082 127.664L202.397 129.007L200.659 128.454L201.213 130.429L199.554 129.639L199.475 130.587L198.29 130.35L196.552 131.772L193.549 131.693L193.629 133.115L194.498 133.747L192.523 134.537L194.576 135.327L194.734 135.959L194.339 135.406L192.365 135.327L191.733 134.616L189.994 134.695L189.046 136.591L187.704 135.722L186.597 136.275L186.992 137.223L183.753 140.067L183.043 138.882L180.83 139.83L179.725 141.884L179.803 142.99L182.489 145.044Z" fill="white" fill-opacity="0.1"/>
<path d="M234.63 95.6686L236.21 95.9849L237.948 95.2737L238.027 92.9036L236.605 94.0889L234.551 94.2467L234.63 95.6686Z" fill="white" fill-opacity="0.1"/>
<path d="M233.523 85.2405L233.128 86.0304L233.05 86.5045L234.946 85.6354L233.523 85.2405Z" fill="white" fill-opacity="0.1"/>
<path d="M231.232 90.6135L230.363 90.2186L228.863 88.7175L229.574 91.3247L231.232 90.6135Z" fill="white" fill-opacity="0.1"/>
<path d="M233.049 86.5046L232.417 86.8204H233.049V86.5046Z" fill="white" fill-opacity="0.1"/>
<path d="M231.234 88.7962L230.287 86.9794L229.97 87.9272L229.26 86.821L228.943 87.848L230.602 89.4282L231.234 88.7962Z" fill="white" fill-opacity="0.1"/>
<path d="M179.803 147.652L181.067 146.861L181.304 144.65H179.725L180.277 146.072L179.803 147.652Z" fill="white" fill-opacity="0.1"/>
<path d="M165.662 153.734L164.478 154.603L165.821 153.971L166.057 153.023L165.347 150.021L164.32 149.31L162.265 149.626L160.212 151.522L160.133 153.181L162.345 154.524L165.662 153.734Z" fill="white" fill-opacity="0.1"/>
<path d="M190.943 166.059L191.654 164.795L190.47 159.265L188.811 159.502L188.179 160.529L188.257 162.583L189.126 163.61L188.811 164.874L190.943 166.059Z" fill="white" fill-opacity="0.1"/>
<path d="M204.769 198.291L206.033 199.397L206.586 198.133L204.532 196.553L204.769 198.291Z" fill="white" fill-opacity="0.1"/>
<path d="M238.265 163.609L239.924 162.503L238.423 161.081L236.29 163.214L238.265 163.609Z" fill="white" fill-opacity="0.1"/>
<path d="M223.493 150.81L222.387 153.259L222.782 153.575L225.863 153.338L226.337 154.602L226.495 152.232H225.705L225.784 150.652L223.493 150.81Z" fill="white" fill-opacity="0.1"/>
<path d="M270.337 100.805L268.362 99.3832L266.782 99.2249L266.624 100.094L268.283 100.252L270.337 100.805Z" fill="white" fill-opacity="0.1"/>
<path d="M270.653 102.305L270.1 104.517L269.073 104.912L268.678 106.255L271.996 108.546L272.628 107.282L275.946 106.097L275.551 103.016L276.42 102.463L275.077 101.12L273.339 98.355L272.391 99.5403L270.337 100.804L269.705 102.542L270.653 102.305Z" fill="white" fill-opacity="0.1"/>
<path d="M275.632 133.194L276.343 132.878L276.501 131.061L277.765 129.956V129.007L275.711 130.825L275.632 133.194Z" fill="white" fill-opacity="0.1"/>
<path d="M268.6 109.652L270.259 110.916L271.681 108.862L267.889 107.914L268.6 109.652Z" fill="white" fill-opacity="0.1"/>
<path d="M284.084 120.475L287.875 119.132L289.061 118.105L291.352 118.184L289.535 117.552L289.772 116.13L288.982 114.55L287.875 114.392L286.375 112.496L285.269 113.602L284.874 115.419L284.953 111.864L283.768 110.916L282.504 113.523L281.951 119.132L281.319 122.134L282.662 122.529L284.084 120.475Z" fill="white" fill-opacity="0.1"/>
<path d="M272.313 109.967L270.338 112.811L271.839 111.785L272.708 112.179L272.866 113.996L273.972 115.419L276.579 115.577L278.159 116.761L280.529 116.287L281.161 115.023L279.502 112.891H280.213V109.651L280.292 108.94L278.791 107.123L277.922 107.203V108.545L276.579 106.491L273.261 107.439L272.313 109.967Z" fill="white" fill-opacity="0.1"/>
<path d="M293.88 119.054L293.801 118.027L292.142 118.816L292.3 117.552L291.352 118.184L292.142 118.975L293.88 119.054Z" fill="white" fill-opacity="0.1"/>
<path d="M242.925 161.239L243.162 159.817L242.53 158.395L240.95 159.896L241.503 160.923L242.925 161.239Z" fill="white" fill-opacity="0.1"/>
<path d="M346.575 106.572L348.55 107.757L347.839 108.389L349.497 109.179L352.815 109.495L354.87 108.152L353.606 106.651L355.028 106.335L356.845 102.859L357.951 102.78L358.82 100.094L356.608 101.121L353.448 99.9358L352.5 98.6718L353.369 97.7236L354.791 100.015L356.687 100.489L358.978 98.5926L358.109 96.6179L357.003 96.3017L357.24 94.959L353.685 95.7489L351.947 97.7236L348.708 97.9606L349.972 98.4348L349.103 99.0668L351.551 101.2L346.575 101.516L345.627 101.2L345.311 104.597L346.495 105.308L346.575 106.572Z" fill="white" fill-opacity="0.1"/>
<path d="M362.927 107.52L361.979 109.179L363.718 112.971L364.27 112.023L365.929 111.312L368.852 108.942L369.089 107.994L366.956 106.888L364.192 106.967L362.927 107.52Z" fill="white" fill-opacity="0.1"/>
<path d="M364.743 93.2197L366.165 91.6394L366.639 88.7165L365.375 87.3738L362.768 89.8226L362.531 90.8495L361.031 90.3754L359.925 92.3506L359.687 93.2988L357.871 92.9826L359.687 94.9578L364.743 93.2197Z" fill="white" fill-opacity="0.1"/>
<path d="M346.337 109.732L345.468 107.994L343.572 107.441L345.863 110.364L346.337 109.732Z" fill="white" fill-opacity="0.1"/>
<path d="M311.024 142.595L310.155 142.99L312.131 143.938L313.473 143.78L313.789 141.489L313.315 140.62L310.708 141.252L311.024 142.595Z" fill="white" fill-opacity="0.1"/>
<path d="M358.741 109.02L360.953 109.968L361.11 108.783L359.294 107.677L358.741 109.02Z" fill="white" fill-opacity="0.1"/>
<path d="M417.674 82.8702L415.62 82.7123L413.565 81.8433L413.96 82.8702L416.567 83.5814L417.674 82.8702Z" fill="white" fill-opacity="0.1"/>
<path d="M460.414 211.562L460.651 210.219L462.705 210.694L462.627 208.876L461.915 207.454L460.572 207.375L459.308 208.244L459.862 210.851L459.071 211.326L460.414 211.562Z" fill="white" fill-opacity="0.1"/>
<path d="M549.524 226.336L548.576 225.546V224.045L547.944 221.122L548.26 218.278L546.443 220.253L547.865 223.966L548.024 226.415L548.734 226.652L551.973 225.625L552.448 224.914L551.736 225.546L549.524 226.336Z" fill="white" fill-opacity="0.1"/>
<path d="M553 218.752L552.131 220.569L552.052 222.939L552.921 220.648L553 218.752Z" fill="white" fill-opacity="0.1"/>
<path d="M547.945 211.641L548.735 215.038L549.052 216.619L549.684 216.46L549.209 212.036L548.577 210.614L549.525 209.192L549.052 207.375L549.92 203.583L548.893 203.267L548.498 204.215L548.893 206.585L548.261 207.849L546.839 207.771L547.945 208.876V211.641Z" fill="white" fill-opacity="0.1"/>
<path d="M549.524 192.523L548.971 194.024L549.682 197.026L549.445 197.816L550.314 199.87L550.788 198.843L550.472 194.893L548.892 190.232L549.524 192.523Z" fill="white" fill-opacity="0.1"/>
<path d="M549.448 182.569L548.658 180.436L548.342 181.147L549.211 183.675L549.448 182.569Z" fill="white" fill-opacity="0.1"/>
<path d="M535.857 149.942L534.277 149.31L534.356 152.154L533.092 153.023L534.435 152.312L535.779 153.813L535.462 156.578L537.121 157.21L537.2 153.497L534.909 151.127L535.857 149.942Z" fill="white" fill-opacity="0.1"/>
<path d="M524.878 223.333L524.089 225.15L520.454 223.491L518.48 223.886L516.031 223.412L514.609 222.305L510.974 216.539L509.71 215.038L510.027 213.3L509.078 213.379L512.16 210.693L515.556 209.902L513.107 209.587L511.291 208.718L507.894 207.612L505.524 207.217L499.361 204.373L495.728 203.03L494.622 203.109L492.172 201.212L490.355 198.921L487.67 197.105L484.43 196.078L482.692 195.841L481.113 193.945L478.742 193.708L478.901 194.972L478.505 195.841L481.35 195.92L483.087 196.63L482.455 197.974L483.561 197.816V199.949L482.455 199.475L481.902 202.003L484.43 202.95L486.564 205.163L487.196 206.822L490.83 209.508L493.595 209.192L496.438 210.219L497.07 211.561L498.809 213.458L500.231 213.853L504.022 216.776L507.973 221.121L508.051 221.99L511.528 222.78L513.74 224.044L514.924 226.572L518.321 228.626L520.06 231.628L523.536 233.603L524.878 233.445L522.113 228.626L522.35 226.966L523.457 227.283L525.827 224.913L526.301 225.624L528.118 226.019L527.486 224.518L524.878 223.333Z" fill="white" fill-opacity="0.1"/>
<path d="M552.684 224.676L552.052 222.938L552.447 224.913L552.684 224.676Z" fill="white" fill-opacity="0.1"/>
<path d="M539.098 159.976L539.019 160.765L537.439 161.872L539.019 160.845L541.389 163.057L540.994 161.397L539.098 159.976Z" fill="white" fill-opacity="0.1"/>
<path d="M532.461 141.094L530.644 137.54L528.353 135.09L527.721 135.406L525.114 133.431L524.482 131.298L524.324 128.06L526.141 126.558L522.823 126.479L519.9 125.057L518.794 123.872L517.451 120.001L517.609 118.026L518.636 117.631L519.11 115.735L517.372 113.128L515.397 113.76L513.185 113.681L511.605 113.049L508.524 110.284L508.129 108.072L507.181 108.704L506.786 107.282L507.497 106.413L508.524 107.993L510.578 106.729L509.788 104.991L505.68 104.438L504.969 106.255L500.703 104.676L500.466 103.49L499.044 101.989L496.516 103.885L497.701 105.149L495.884 106.729L494.778 106.492L491.303 103.648L489.407 99.3825L487.826 99.6195L487.984 98.7505L486.246 98.8292L485.614 97.7231L484.35 97.3281L484.113 95.9854L483.007 95.9062L484.192 94.0894L483.481 92.5883L486.088 91.9563L485.061 90.0603L484.35 90.139L483.56 87.6115L482.612 86.0313L482.691 84.6881L487.115 86.9003L486.957 85.7942L484.35 82.4763L483.481 78.0523L484.429 73.707L485.93 72.2064L488.616 71.6531L489.564 70.0734L487.431 69.283L485.851 67.8611L485.772 66.3601L484.271 64.5432L484.034 62.8843L481.506 61.067L481.901 60.1192L479.689 56.7222L478.268 56.3272L479.057 55.4582L477.793 54.0363L478.109 52.9302L476.213 49.6123L474.949 45.899L473.764 44.3192L473.29 42.344L472.342 43.371L471.552 41.9491L473.211 42.107L473.685 39.4211L475.028 36.2611L473.922 34.6022L472.579 33.8123L470.446 35.0763L468.787 34.8392L467.286 37.288L465.706 36.656L463.257 36.9723L460.255 38.1571L461.282 39.184L459.623 40.9222L457.095 40.6851L457.411 42.4232L458.359 43.371L455.673 45.5041L456.542 41.3171L454.883 42.5024L455.91 40.843L457.253 40.211L457.964 38.315L456.858 34.128L455.436 33.1011L454.488 31.2843L450.854 30.0203L449.748 31.5213L447.378 31.6792L446.825 28.5192L445.403 28.0451L446.983 27.6501L448.168 28.3609L447.694 29.1512L451.723 27.6501L452.197 26.7811L452.118 24.016L450.775 22.6733L452.118 19.1179L454.093 18.4072L455.041 18.723L456.621 17.1432L456.147 14.8522L459.307 10.744L459.07 8.1373L458.201 6.24084L456.305 7.58401L455.594 6.00424L455.199 7.42612L456.621 8.1373L455.278 8.45307L453.382 6.47789L448.879 8.05812L449.906 7.18907L449.511 4.26612L448.168 4.10824L448.484 2.05388L446.588 2.29094L445.403 1.34318L445.166 0L444.218 0.0791726L444.376 1.50106L441.058 5.84589L439.241 7.26824L439.083 10.4282L440.11 10.0333L439.083 12.008L439.399 15.3259L440.031 14.2202L442.164 13.7461L443.033 14.6939L443.665 13.8248L445.166 15.0893L443.349 15.168L442.48 16.9061L441.69 16.1162L439.715 16.9853L437.266 16.9061L437.503 17.9331L435.133 18.4859L434.185 20.1448L433.711 22.12L432.684 22.9099L430.472 25.8333L429.129 28.6771L427.549 29.1512L425.732 32.4691L423.678 34.3651L422.019 36.8139L422.335 37.2093L420.913 39.5003L418.859 44.24L418.306 48.2691L417.674 49.691L418.306 50.4813L417.358 51.4291L416.805 53.483L415.383 56.9592L417.911 57.4334V59.171L419.175 57.6699L421.466 57.1171L423.757 57.5912L424.784 59.2502V61.3041L422.256 61.7782L420.676 64.3062L418.306 63.9113L416.489 64.7803L417.99 67.4662L416.489 70.6262L416.094 72.9171L414.04 74.5761L414.435 75.3664L413.487 78.8422L414.04 80.8174L413.25 81.6864L415.857 82.555L418.069 82.7921L420.439 85.1622L417.595 83.1083L416.252 83.9774L412.46 82.7921L411.828 84.2932L409.616 85.2414L407.325 83.2662L404.876 83.1083L403.691 80.8961L404.086 83.2662L402.585 83.8982L399.899 86.2683L397.529 90.8502L396.66 95.1163L396.739 96.7753L394.922 99.9353L393.5 100.804L393.658 99.6195L391.446 99.7774L390.103 100.725L390.34 101.989L388.839 101.12L388.286 102.937L387.022 101.989L385.679 103.885L384.81 102.305L386.074 102.148L385.521 100.804L383.467 100.884L381.018 102.7L379.359 104.991L381.176 109.178L381.097 111.469L379.754 110.916L380.702 109.415L379.122 105.623L376.989 109.415L376.673 111.074L375.725 108.941L376.91 108.468L378.806 105.781L375.646 107.519L369.089 113.681L366.956 114.788L369.484 115.34L369.247 116.762L367.746 118.58L369.089 120.791L370.037 119.527L370.985 121.265L374.382 122.608L373.355 124.505L371.38 124.188L369.168 127.823L372.091 126.796L372.565 127.506L366.877 129.165L365.771 131.298L365.613 133.116L363.875 134.221L362.216 134.3L359.609 133.668L361.742 138.092L362.769 140.857L362.058 142.596L358.108 142.279L348.47 137.618L352.104 138.172L352.341 136.276L350.524 135.485L349.655 136.276L349.734 133.826L348.628 132.799L347.127 134.617L348.47 131.852L346.653 131.535L344.441 132.089L343.967 131.061L341.913 132.089L341.36 133.748L340.491 133.116L339.543 133.984L336.067 133.905L336.146 135.485L335.04 135.327L335.83 137.776L337.094 138.566L337.568 140.936L336.067 140.857L335.909 141.884L333.46 143.385L330.695 144.255L327.377 144.412L326.034 141.964L324.059 142.991L319.714 144.097L318.687 145.597L316.554 147.177L317.739 147.967L317.502 148.916L316.001 147.889L316.159 146.703L314.658 144.887L313.789 146.783L311.182 146.466H308.259L307.864 148.521L308.575 148.757L310.629 147.572L310.708 147.73L310.866 148.047L309.286 150.417L307.706 150.337L308.18 151.444L306.6 152.549L305.573 154.05L302.571 154.761L302.729 156.42L301.544 158.396L302.018 153.972L302.966 153.813L303.361 151.206L305.178 150.495L306.205 147.177L307.469 145.202L307.232 144.175L309.997 138.804L311.024 137.381L311.419 134.853L310.787 133.194L309.049 133.352L307.943 131.693L310.629 132.641L310.234 130.666L309.602 130.745L307.627 127.585L306.837 128.138L305.652 126.479L303.914 127.111L302.966 126.321L301.386 127.428L299.964 127.348L297.752 128.297L298.068 129.797L295.698 130.745L296.567 127.348L295.145 126.558L293.802 127.428L293.328 126.637L290.879 127.111L292.143 126.321L293.565 124.505L292.538 123.319L291.748 123.714L289.299 122.845L288.193 123.714L286.85 126.005L285.428 129.639L286.297 131.061L285.902 132.878L283.69 133.826L282.505 133.589L284.006 135.248L284.638 136.908L282.584 136.038L281.162 136.828V137.855L279.819 137.302L277.686 138.566L277.449 137.065L279.029 136.749L279.108 135.327L277.212 135.959L275.395 137.54L272.235 138.092L273.341 139.672L266.547 141.964L264.967 142.911L260.859 147.257L260.78 146.229L259.279 147.177L260.78 147.415L260.069 148.362L259.042 147.572L258.015 148.757L259.516 149.389L260.069 150.495L258.568 150.417L258.41 149.152L256.751 149.626L258.252 150.1L258.41 151.601L259.99 152.313L260.78 154.761L261.57 155.077L260.543 156.657L259.832 154.445L257.225 154.841L256.83 155.631L255.487 155.156L252.564 155.71L249.324 155.236L246.797 155.472L245.296 157.289L246.007 160.37L245.296 163.057L246.165 164.716L248.377 165.505L248.219 167.007L249.404 168.586L250.747 169.218L251.221 171.036L249.72 173.564L250.589 179.489L249.72 180.516L248.377 180.357L248.772 182.253L247.587 180.753L249.404 179.647L249.562 176.961L248.772 175.38L247.587 176.644L247.35 178.145L246.402 178.303L247.429 176.724L247.113 174.985L247.666 173.01L249.641 172.3L250.51 170.404L249.483 169.455L246.718 169.772L242.057 163.767L240.003 163.372L239.134 163.215L237.159 165.189L238.344 165.031V166.849L237.001 167.007L235.895 165.111L233.446 165.585L233.604 168.271L236.369 171.036L237.791 171.51L237.712 174.274L236.685 173.564L236.369 172.142L232.26 170.482L230.681 168.745L231.708 167.954L231.471 166.295L231.945 164.716L233.446 162.898L233.92 160.687L233.209 158.001L232.419 158.159L232.892 156.183L231.392 156.263L232.656 159.423L232.26 161.871L231.313 163.53L227.599 164.636L227.126 165.822L225.546 167.244L226.415 168.745L226.731 174.591L224.598 176.565L223.097 179.567L223.412 182.253L222.544 183.754L226.02 185.335L227.363 184.465L230.444 186.282L230.681 187.231L232.577 188.652L232.182 190.548L232.972 193.393L230.918 194.025L230.207 196.789L231.866 197.817L234.315 198.686L231.471 198.607L229.18 196.395L230.602 193.156L230.127 192.682L230.996 191.023L229.575 188.889L229.18 186.993L225.783 187.073L223.412 187.863L222.465 189.916L223.097 191.734L222.939 193.551L222.228 195.289L218.988 197.421L218.356 199.476L216.856 200.503L213.459 201.055L212.511 202.873L211.089 203.268L208.876 201.529L206.507 200.898L203.583 197.58L203.663 196.079L206.191 197.027L207.929 200.028L210.852 199.871L211.247 198.29L213.932 196.868L216.066 193.946L217.804 193.708L218.673 190.153L220.806 188.574L218.91 184.545L219.858 182.095L220.332 179.489L221.201 178.225L221.516 174.985L222.702 174.116L223.887 170.799L223.966 169.14L223.097 167.401L223.018 165.505L224.044 165.189L224.993 163.452L227.047 160.924L227.916 157.764L225.625 155.393L221.359 154.129V153.418L219.62 154.919L216.145 160.529L214.091 162.266L211.089 162.898L208.482 165.822L210.457 166.453L209.272 169.297L208.324 170.482L208.087 171.983L207.139 171.825L205.716 174.433L205.796 176.407L207.139 174.748L208.561 176.487L208.087 177.593L208.244 180.594L209.745 181.385L208.482 183.359L205.559 185.809L205.875 184.781L204.058 180.357L204.374 180.041L201.529 176.802L201.924 176.487L200.423 174.748L199.081 171.825L196.079 168.665L192.129 165.663L191.18 166.612L189.601 166.532L189.127 169.929L189.759 170.561L189.047 171.825L187.231 172.615L185.335 171.983L185.018 173.564L183.833 173.959L182.727 172.695L183.439 171.273L184.86 170.799L184.465 168.508L181.78 168.191L179.015 168.981L176.171 166.295H172.695L171.588 167.481L170.956 165.663L169.692 165.743L168.113 164.321L169.14 163.925L169.85 165.031L171.036 162.661L172.537 162.03L171.51 160.607L167.639 160.529L167.954 162.108L166.217 161.634L167.322 160.529L163.372 159.738L163.215 159.265L158.791 159.423L156.42 158.553L155.551 159.185L152.628 158.238L152.313 159.106L150.575 159.975L149.626 161.161L146.151 159.738L144.886 157.842L145.756 155.868L145.202 153.655L146.466 152.708L148.204 152.313L151.681 154.445L152.786 152.549L153.181 149.705L152.391 147.889L149.785 145.202L148.836 143.465L148.758 147.257L146.071 149.389L142.911 151.049L142.042 151.917L142.596 153.418L142.121 154.761L140.778 156.025L138.804 156.815L136.67 158.079L136.908 154.445L135.09 153.103L135.406 152.076L137.302 151.285L133.194 151.996L130.825 151.917L129.244 150.969H126.716L125.057 150.495L123.636 151.127L122.372 155.077L121.423 155.71L119.844 154.841H118.422L118.185 152.313L117.078 149.468L117.316 147.809L116.841 145.281L115.183 145.756L114.234 144.965L112.497 149.073L113.839 150.417V151.759L111.706 153.418L109.415 152.154L108.783 149.311L109.494 145.993L108.388 144.887L108.783 141.964L109.573 142.279L111.865 140.068L113.444 141.647L113.207 142.911L114.393 141.964L112.101 139.672L113.129 137.618L116.052 137.46L117.158 136.513L117.868 134.617L117.473 131.535L118.5 131.22L118.263 129.402H118.817L118.185 129.007L117.948 128.612V128.533L119.132 128.849L118.737 127.743L120.317 124.741L120.949 126.321L120.317 126.874L119.844 129.481L120.791 131.456L120.396 132.641L121.423 133.352L121.265 135.644L122.372 138.804L123.241 139.988L124.031 143.465L125.057 145.202L127.111 146.783L130.903 148.125L134.617 147.889L136.117 147.257L136.986 145.519L139.277 143.148L139.199 139.356L138.645 138.013L138.804 134.537L138.329 134.221L139.119 130.903L138.961 125.057L136.986 120.238L136.749 118.421L135.327 117.236H136.354L135.801 115.893L136.196 114.471L136.749 116.367L137.618 116.604L137.935 112.97L136.749 113.602L135.406 112.654L135.249 110.837L133.511 111.943L133.353 110.284L131.22 110.442L129.797 109.257L128.612 109.652L126.164 108.546V109.573L123.636 109.889L121.897 111.548L121.977 113.602L120.396 116.841L119.132 117.236L114.551 116.999L112.575 119.053L110.047 122.45L107.44 124.662L106.65 123.636L104.122 125.61L102.385 125.689L101.436 126.953L101.831 127.823L99.3033 129.165L99.0663 131.377L97.4864 132.089L94.9585 131.456L94.0894 133.984L93.6945 137.223L92.5091 139.356L89.3492 139.909L86.1892 139.277L80.8174 138.724L78.0523 138.092L75.8401 137.302L70.5475 135.801L71.2582 137.223L73.3126 138.172L71.6532 139.119L71.7323 137.935L70.6262 139.277L71.1795 139.909L70.4683 141.173L71.0212 142.674L71.8902 144.175L71.4953 145.993L70.5475 146.151L70.2313 144.412L69.5201 142.437L68.0195 142.359L67.3875 140.7L65.8073 140.857L66.0443 139.356L63.9904 140.225L63.3584 141.727L61.9361 141.647L62.4894 140.7L60.1984 140.936L56.9592 142.911L54.9054 142.674L54.5104 143.385L55.3795 144.492L54.6683 145.834L53.3251 145.597L52.2195 144.175L50.0073 144.412L49.4544 147.098L46.1361 147.809L46.6894 148.284L45.1883 150.812L42.4233 153.103L43.2923 154.287L42.8182 155.472L43.8451 156.025L44.1613 157.684L42.6603 158.948L44.4771 159.975L45.3462 161.239L45.1883 164.953L43.1344 165.585L42.0283 167.401L39.9744 167.322L39.8952 169.535L37.8414 171.668L37.9992 174.274L36.1824 174.985L37.1302 176.249L37.4464 178.145L36.4982 178.777L36.419 180.279L34.2073 179.962L32.7062 179.015L32.4691 177.197L31.7579 175.855H30.1782L29.7832 177.593L26.7024 179.804L25.8333 182.253L27.0181 183.518L28.7563 183.044L29.8624 185.729L31.2843 186.361L31.7579 188.1L32.8641 188.889L32.4691 190.706L31.2843 191.734V193.393L29.7832 192.919L28.3613 194.894H27.3344L28.4401 197.58L29.6254 199.002L28.8355 200.66L27.6502 202.636L26.4653 203.346V204.927L28.1243 206.348L27.8081 207.612L28.3613 209.271L30.1782 210.062L32.2321 211.799L31.2051 214.486L31.1264 216.46H32.5483L33.5753 220.647L34.6813 221.438L34.4443 222.623L35.2341 223.571L35.0763 225.388L36.3403 226.415L34.6022 228.074H32.7062L31.7579 227.284V229.1L30.336 228.548L28.7563 231.945L27.4131 232.023L25.5963 232.972L22.4363 228.943L21.1723 229.338L19.4341 227.995L17.2219 228.706L16.195 229.575L20.6982 233.446L19.355 234.551L18.8021 233.604L16.4321 232.655L12.9563 230.839L12.1664 229.338L11.2181 231.708L11.8502 232.34L11.9293 235.42L10.9811 233.92L9.48005 233.13L7.34697 233.762L6.08298 233.13L4.58189 235.183L4.10826 233.92L1.97523 232.655L2.60722 232.34L2.13309 230.522L0 230.364L0.869094 234.788L0.157914 236.685L1.65895 238.502L1.18532 241.108L2.29094 243.399L2.6859 245.928L2.37013 251.932L2.44931 253.986L4.42403 254.223L5.92506 256.593L6.3992 258.726L7.66319 260.543L7.74238 261.886L9.63836 264.414L11.0603 265.441L11.5344 266.942L13.035 268.917L12.8771 270.339L13.5091 271.682L14.536 274.131L13.5883 274.604L14.1411 275.711L16.3533 276.422L18.091 277.844V279.029L19.1179 278.713L19.7504 279.977L20.1453 282.031L21.5672 283.927L19.8291 284.638L20.3032 287.008L23.0683 291.274L22.8312 296.33L25.2013 299.332L27.2552 298.779L29.2304 299.49L31.4422 299.016L31.6 292.222L32.1534 290.089L31.8371 288.351L34.0493 286.218L35.9453 285.112L38.1571 284.875L36.2611 284.322L34.0493 285.744L35.4712 284.164L36.4982 281.399L35.2341 278.002L36.3403 276.975L37.5251 277.133L39.8952 277.291L43.8451 275.869L44.0035 275.395L45.1883 275.158L47.7163 277.133L50.4814 277.37L50.7971 278.871L51.8241 277.054L53.483 277.923H54.9054L53.1673 273.341L54.0363 273.183L54.5892 274.368L56.0115 274.763L56.2481 271.839L56.9592 269.628L56.7222 265.915L55.0632 264.493L54.5104 263.387L53.483 263.861L53.1673 262.281L55.2212 259.753L53.483 256.83L55.3003 256.039L59.4873 254.776L59.1715 253.117L62.0153 251.063L64.7011 251.379L65.7281 250.115L66.7555 250.036L67.7825 250.351L67.9403 253.038L67.3875 255.566L67.8611 256.435L70.6262 256.988L71.4161 254.618L72.4435 253.196L76.5513 254.223L77.8153 252.879L79.1584 254.065L82.3972 254.697L84.6881 253.748L85.3993 254.618L86.0313 253.67L87.7694 256.277L86.8212 256.909L88.7964 258.331L89.9024 257.54L92.1143 258.489L91.5614 260.622L93.2203 262.123L95.0372 262.991L95.5905 264.572L95.1955 265.599L96.0646 266.626L96.1433 268.601L96.9332 270.181L95.5905 271.207L96.6966 272.156L98.3555 269.628L99.4612 271.603L99.6195 273.657L100.567 275.474L103.095 275.553L104.281 274.763H106.335L109.178 276.422V278.16L110.679 279.029L111.865 277.923L113.207 279.266L114.313 279.108L115.103 280.688L114.393 281.557L115.261 283.69L117.316 285.27L117.158 286.455L118.422 286.771L120.713 285.428L121.345 287.166L123.082 288.43L126.479 289.22L128.375 287.245L129.402 286.929L129.086 285.428L127.348 284.006L127.428 282.979L125.057 281.162L126.005 280.767L124.82 278.397L128.138 279.029L130.351 278.713L129.956 275.79L132.484 275L134.537 275.474L134.932 276.106L137.145 276.975L137.381 276.027L134.3 273.104L135.722 271.682L134.774 270.418L136.196 269.707L136.828 268.443L138.329 269.786L142.516 271.366L146.23 272.156L149.39 272.63L153.655 273.815L154.682 274.842L155.314 273.578L156.578 273.42L158.711 274.526L161.002 274.763L166.375 275.869L168.982 276.106L170.087 274.684L171.51 275.237L172.457 274.447L173.564 274.21L174.274 275.316L176.407 276.027L178.145 278.239L179.647 277.607L181.226 278.081L181.385 279.819L180.753 281.952L181.385 282.505L180.516 285.349L179.567 284.954L179.963 286.771L180.831 286.297L182.412 287.403L182.886 286.692L184.071 287.798L185.097 286.771L185.177 290.01L186.441 288.667L187.942 289.22L188.1 290.326L190.075 291.116L188.179 292.775L188.574 294.592L191.339 293.881L193.235 295.619L193.788 294.197L195.526 293.644L196.711 294.118L200.265 292.775L206.111 291.59L204.69 293.723L203.426 293.249L203.82 294.75L208.64 300.517L209.272 301.86L214.091 315.132L215.828 320.504L218.278 319.714L218.515 317.976L219.858 317.502L221.991 319.003L221.359 320.267L223.097 320.504L223.176 322.163L224.756 322.005L228.311 322.953L229.891 321.847L233.367 321.61L235.263 322.716L236.448 324.533L237.001 327.298L240.635 328.957L241.82 332.591L243.558 332.433L246.56 333.776L248.93 331.564L249.799 332.275L248.772 332.986L249.956 333.618L250.905 335.514L252.88 336.936L255.803 336.304L257.067 334.408L259.436 334.171L260.701 334.566L264.967 332.67L264.73 331.248L266.547 330.853L266.942 329.984L270.339 328.562L271.919 327.535L273.973 327.219L275.632 325.56L277.686 325.481L278.397 324.375L280.214 325.481L281.794 324.691L282.11 325.718L288.43 325.797L289.141 328.009L290.721 329.51L292.222 329.194L293.091 329.826L295.461 329.984L297.12 328.957L299.885 329.589L302.966 329.194L304.783 330.142L308.654 327.14L309.128 323.822L307.627 323.111L306.205 320.741L306.995 317.265L307.785 317.107L308.101 315.29L309.444 314.658L310.629 311.972L312.762 312.999L314.5 313.078L316.317 313.868L318.845 313.473L323.506 314.579L327.614 314.658L327.772 316.238L329.51 319.951L331.011 320.583L336.936 321.215L339.543 320.346L340.333 319.161L344.599 316.712L347.996 316.317L349.497 316.712L351.472 315.843L354.948 317.265L357.634 316.633L358.74 316.554L359.293 318.371L363.006 319.714L366.087 318.45L371.617 317.897L372.328 317.028H374.382L376.831 314.342L380.07 312.683L381.729 311.103L383.309 310.787L384.573 309.523L384.731 307.627L385.916 305.573L388.523 302.413L390.814 301.702L394.764 302.492L396.581 301.702L398.398 299.806L404.481 299.885L407.167 299.332L408.589 297.357L409.774 294.355L411.749 293.091L412.381 291.827L411.67 290.168L410.564 290.484L410.88 287.403L410.406 286.297L410.801 284.559L410.327 280.055L411.433 277.449L411.512 275.553L410.011 274.526L409.695 273.104L408.115 273.262L406.693 274.368L406.061 273.42L406.693 272.156L407.641 268.127L408.984 267.337L411.749 264.335L412.776 263.228L414.988 261.964L416.173 260.385L417.595 259.437L420.834 258.884L422.098 259.279L425.021 257.462L428.339 257.146L435.054 259.674L435.37 260.859L437.977 262.439L439.715 262.834L441.295 264.73L444.06 265.362L446.114 267.653L447.615 267.495L449.037 269.944L451.328 270.181L452.671 269.628L455.436 267.179L455.673 267.811L457.648 267.415L459.07 265.757L462.388 266.388L464.6 266.152L466.101 264.809L466.812 266.388L469.34 267.021L470.13 269.075L473.211 269.786L474.554 268.047L475.581 267.89L479.215 264.177L478.662 262.36L479.61 259.99L481.19 258.726L481.427 256.909L483.323 253.748L485.14 253.117L485.693 254.776L488.142 255.645L488.458 258.173L487.984 260.306L490.354 264.098L490.591 265.441L491.855 266.388L491.54 267.811L492.408 268.996L492.092 269.786L493.199 271.682L492.645 273.578L494.068 275.237L493.199 276.659L493.988 279.503L493.593 281.32L490.908 281.083L490.433 279.898L488.774 279.108L487.51 279.266V282.742L485.93 285.191L487.273 285.586L491.065 288.114L493.04 291.274L494.225 291.59L495.332 295.461L494.225 296.251L493.119 298.384L496.516 299.569L496.2 297.594L494.62 297.831L497.385 295.856L496.832 293.565L497.227 290.8L496.832 290.089L498.096 289.457L498.017 291.353L498.649 290.484L499.123 287.798L501.098 290.089L502.994 288.114L504.021 288.588L504.495 287.482H505.839L506.865 285.27L508.367 283.295L508.524 281.162L509.551 278.713L510.5 275L510.025 273.815L510.341 271.919L509.709 271.524L509.156 267.495L509.788 266.152L509.156 263.545L509.393 262.281L508.919 259.674L509.314 257.462L509.156 253.275L508.524 249.404L506.154 244.031L505.839 240.082L504.574 237.238L504.179 230.444L502.204 228.153L499.36 223.729L497.227 223.018L496.99 221.201L496.042 221.279L493.593 219.858L492.092 217.962L491.54 216.382L490.117 215.196L490.196 214.012L489.169 213.143L489.485 212.116L489.011 209.666L487.352 208.482L485.14 208.561L484.903 207.375L482.217 206.111V204.215H479.057L476.924 205.164L474.475 205.242L473.527 204.452L470.841 204.927L470.13 206.98L467.523 208.639L469.498 210.14L470.999 213.143L470.051 213.932L469.735 211.484L468.787 210.694L469.182 212.827L468.945 215.039L467.365 217.33L466.575 213.775L464.521 214.881L464.205 210.694L463.573 211.958L463.178 215.276L464.521 215.039L465.153 216.777L463.81 218.199L460.255 213.695L456.779 217.567L454.409 218.436L453.382 217.646V215.671L454.014 214.09L453.777 211.089L454.251 203.9L454.014 201.529L454.567 200.266L453.698 200.108L452.829 196.158L452.671 192.997L453.224 190.074L452.592 188.495L453.066 186.046L451.565 183.913L451.091 182.253L451.565 179.015L450.301 174.511L451.17 170.641L452.197 169.692L452.592 167.876L455.436 164.557L457.332 161.161L458.122 162.345L459.623 160.924L458.122 159.423L459.702 158.316L461.914 156.578L461.756 154.682L462.862 153.103L463.652 153.418L464.837 151.68L463.652 151.996L462.783 151.049L463.652 149.785L462.783 149.548L462.941 147.572L465.627 145.124L466.575 145.36L467.602 144.097L466.891 143.623L467.602 141.805L470.13 141.647L471.631 139.909L471.236 142.201L470.13 144.729L472.184 144.649L473.369 142.201L472.816 140.462L474.791 138.804L473.527 136.117L475.976 134.221L475.66 132.089L477.161 129.639L474.633 129.481L472.974 132.641L470.841 130.982L471.157 129.956L469.972 129.086L468.787 126.874L467.76 122.608L466.338 120.949L465.864 118.342L463.732 117.316L463.099 113.918L464.284 111.943L463.968 111.074L464.916 107.045H466.654L466.891 105.702L465.864 103.49L468.471 104.676L469.972 107.282L471.236 106.808L472.184 107.914L472.263 105.386L473.369 106.887L475.107 107.598L471.789 99.0662L470.367 96.5382V95.4321L472.026 94.9585L470.999 93.5361L469.893 94.563L468.234 93.2995H467.049L466.575 92.1142L465.153 92.035L465.39 87.1374L467.997 85.4784L466.891 87.7694L467.839 89.5862L471.868 91.0081L473.527 92.5883L474.238 91.7984L476.134 94.4843L477.003 93.6153L477.161 97.1702L477.793 97.8814L478.425 101.436L479.847 102.068L480.4 103.727L482.691 107.598L482.612 108.862L483.797 110.047L484.587 112.26L486.167 113.444L488.379 117.394L489.801 122.292L489.011 123.477L490.117 125.057L488.932 126.796L489.169 127.743L491.855 127.98L493.831 130.35L494.62 133.668L498.807 137.302L503.548 140.068L509.551 141.884L513.659 142.674L520.137 144.649L525.509 145.281L531.751 147.493L532.777 146.861L534.831 147.73L532.461 141.094Z" fill="white" fill-opacity="0.1"/>
<path d="M519.584 95.5107L522.665 94.4837L523.929 93.3776L522.981 93.2197L520.374 94.4837L519.347 94.0096L518.557 95.3528L518.794 96.4584L519.584 95.5107Z" fill="white" fill-opacity="0.1"/>
<path d="M491.38 97.8028L493.434 99.146L492.17 96.3018L492.407 94.4058L491.459 93.6951L489.721 94.0108L490.116 95.0378L491.38 97.8028Z" fill="white" fill-opacity="0.1"/>
<path d="M17.22 126.321L20.3014 135.406L24.1725 134.379L24.8832 132.957L23.8563 130.982L23.9355 127.98L23.3822 126.637L21.8024 127.506L19.9064 122.371L18.2475 122.687L18.7211 124.583L15.9561 122.45L17.22 126.321Z" fill="white" fill-opacity="0.1"/>
<rect x="72.9111" y="190.28" width="7.11327" height="7.11327" fill="#FED98C"/>
<rect x="97.8076" y="227.625" width="7.11327" height="7.11327" fill="#FED98C"/>
<rect x="268.526" y="199.171" width="7.11327" height="7.11327" fill="#FED98C"/>
<rect x="224.068" y="257.856" width="7.11327" height="7.11327" fill="#FED98C"/>
</svg>
