<svg width="30" height="30" viewBox="0 0 30 30" fill="none" xmlns="http://www.w3.org/2000/svg">
<path d="M20.8478 18.9408L21.6484 19.403L22.2416 18.3756C22.8941 17.2454 24.3528 16.8545 25.483 17.507C25.935 17.768 26.2835 18.1611 26.4787 18.6299L28.8089 24.0853C29.0886 24.7399 29.0734 25.5256 28.6818 26.2038C28.2902 26.882 27.6173 27.288 26.9106 27.3732L21.021 28.0828C20.5175 28.1483 20.0028 28.043 19.5508 27.782C18.4206 27.1294 18.0297 25.6707 18.6823 24.5405L19.2755 23.5131L18.4752 23.051" stroke="black" stroke-width="1.2" stroke-miterlimit="10" stroke-linecap="round" stroke-linejoin="round"/>
<path d="M12.6271 15.4276C12.6271 16.2753 12.4121 17.0587 11.678 17.4825L8.35156 19.403L7.75834 18.3756C7.1058 17.2454 5.64713 16.8545 4.51693 17.507C4.0649 17.768 3.71638 18.1611 3.52127 18.6299L1.19099 24.0852C0.911344 24.7399 0.926531 25.5256 1.31811 26.2038C1.7097 26.882 2.38259 27.288 3.08929 27.3732L8.97889 28.0828C9.48241 28.1483 9.99709 28.043 10.4491 27.782C11.5793 27.1294 11.9702 25.6707 11.3177 24.5405L10.7244 23.5131L13.8136 21.5925C16.0161 20.3209 17.3729 17.9708 17.3729 15.4276V11.4915H18.5593C19.8644 11.4915 20.9322 10.4237 20.9322 9.11863C20.9322 8.59665 20.7661 8.09829 20.4576 7.69496L16.8983 2.94921C16.4712 2.37972 15.7831 2 15 2C14.2169 2 13.5288 2.37972 13.1017 2.94921L9.54238 7.69496C9.23391 8.09829 9.06781 8.59665 9.06781 9.11863C9.06781 10.4237 10.1356 11.4915 11.4407 11.4915H12.6271V15.4276Z" stroke="black" stroke-width="1.2" stroke-miterlimit="10" stroke-linecap="round" stroke-linejoin="round"/>
<path d="M12.6271 15.4276C12.6271 16.2753 12.4121 17.0587 11.678 17.4825L8.35156 19.403L7.75834 18.3756C7.1058 17.2454 5.64713 16.8545 4.51693 17.507C4.0649 17.768 3.71638 18.1611 3.52127 18.6299L1.19099 24.0852C0.911344 24.7399 0.926531 25.5256 1.31811 26.2038C1.7097 26.882 2.38259 27.288 3.08929 27.3732L8.97889 28.0828C9.48241 28.1483 9.99709 28.043 10.4491 27.782C11.5793 27.1294 11.9702 25.6707 11.3177 24.5405L10.7244 23.5131L13.8136 21.5925C16.0161 20.3209 17.3729 17.9708 17.3729 15.4276V11.4915H18.5593C19.8644 11.4915 20.9322 10.4237 20.9322 9.11863C20.9322 8.59665 20.7661 8.09829 20.4576 7.69496L16.8983 2.94921C16.4712 2.37972 15.7831 2 15 2C14.2169 2 13.5288 2.37972 13.1017 2.94921L9.54238 7.69496C9.23391 8.09829 9.06781 8.59665 9.06781 9.11863C9.06781 10.4237 10.1356 11.4915 11.4407 11.4915H12.6271V15.4276Z" stroke="black" stroke-width="1.2" stroke-miterlimit="10" stroke-linecap="round" stroke-linejoin="round"/>
</svg>
