<svg width="30" height="30" viewBox="0 0 30 30" fill="none" xmlns="http://www.w3.org/2000/svg">
<path d="M1 6.28815H5.57624" stroke="black" stroke-width="1.2" stroke-miterlimit="10" stroke-linecap="round" stroke-linejoin="round"/>
<path d="M17.0171 6.28815H28.0001" stroke="black" stroke-width="1.2" stroke-miterlimit="10" stroke-linecap="round" stroke-linejoin="round"/>
<path d="M1 15.4407H17.0168" stroke="black" stroke-width="1.2" stroke-miterlimit="10" stroke-linecap="round" stroke-linejoin="round"/>
<path d="M23.8813 15.4407H28" stroke="black" stroke-width="1.2" stroke-miterlimit="10" stroke-linecap="round" stroke-linejoin="round"/>
<path d="M1 24.5932H5.57624" stroke="black" stroke-width="1.2" stroke-miterlimit="10" stroke-linecap="round" stroke-linejoin="round"/>
<path d="M12.4404 24.5932H27.9996" stroke="black" stroke-width="1.2" stroke-miterlimit="10" stroke-linecap="round" stroke-linejoin="round"/>
<path d="M10.1524 8.57627H7.86429C6.60062 8.57627 5.57617 7.55181 5.57617 6.28813C5.57617 5.02446 6.60062 4 7.86429 4H10.1524C11.4161 4 12.4405 5.02446 12.4405 6.28813C12.4405 7.55181 11.4161 8.57627 10.1524 8.57627Z" stroke="black" stroke-width="1.2" stroke-miterlimit="10" stroke-linecap="round" stroke-linejoin="round"/>
<path d="M10.1524 26.8814H7.86429C6.60062 26.8814 5.57617 25.8569 5.57617 24.5932C5.57617 23.3295 6.60062 22.3051 7.86429 22.3051H10.1524C11.4161 22.3051 12.4405 23.3295 12.4405 24.5932C12.4405 25.8569 11.4161 26.8814 10.1524 26.8814Z" stroke="black" stroke-width="1.2" stroke-miterlimit="10" stroke-linecap="round" stroke-linejoin="round"/>
<path d="M21.5933 17.7288H19.3052C18.0415 17.7288 17.0171 16.7043 17.0171 15.4407C17.0171 14.177 18.0415 13.1525 19.3052 13.1525H21.5933C22.857 13.1525 23.8815 14.177 23.8815 15.4407C23.8815 16.7043 22.857 17.7288 21.5933 17.7288Z" stroke="black" stroke-width="1.2" stroke-miterlimit="10" stroke-linecap="round" stroke-linejoin="round"/>
</svg>
