<svg width="60" height="60" viewBox="0 0 60 60" fill="none" xmlns="http://www.w3.org/2000/svg">
<path d="M33.8136 34.4237H17.7119C15.3718 34.4237 13.4746 32.5266 13.4746 30.1864C13.4746 27.8463 15.3718 25.9492 17.7119 25.9492H33.8136C36.1538 25.9492 38.0509 27.8463 38.0509 30.1864C38.0509 32.5266 36.1538 34.4237 33.8136 34.4237Z" stroke="white" stroke-width="2" stroke-miterlimit="10" stroke-linecap="round" stroke-linejoin="round"/>
<path d="M25.339 17.4746H9.23729C6.89714 17.4746 5 15.5774 5 13.2373C5 10.8971 6.89714 9 9.23729 9H25.339C27.6792 9 29.5763 10.8971 29.5763 13.2373C29.5763 15.5774 27.6792 17.4746 25.339 17.4746Z" stroke="white" stroke-width="2" stroke-miterlimit="10" stroke-linecap="round" stroke-linejoin="round"/>
<path d="M25.339 51.3729H9.23729C6.89714 51.3729 5 49.4758 5 47.1356C5 44.7955 6.89714 42.8983 9.23729 42.8983H25.339C27.6792 42.8983 29.5763 44.7955 29.5763 47.1356C29.5763 49.4758 27.6792 51.3729 25.339 51.3729Z" stroke="white" stroke-width="2" stroke-miterlimit="10" stroke-linecap="round" stroke-linejoin="round"/>
<path d="M38.0508 47.1356H46.5254C51.2058 47.1356 55 43.3415 55 38.661V21.7119C55 17.0315 51.2058 13.2373 46.5254 13.2373H38.0508" stroke="white" stroke-width="2" stroke-miterlimit="10" stroke-linecap="round" stroke-linejoin="round"/>
<path d="M42.2881 17.4746L38.8995 14.9334C38.3841 14.5468 38.0508 13.931 38.0508 13.2373C38.0508 12.5435 38.3841 11.9278 38.8995 11.5412L42.2881 9" stroke="white" stroke-width="2" stroke-miterlimit="10" stroke-linecap="round" stroke-linejoin="round"/>
</svg>
